<svg width="84" height="58" viewBox="0 0 84 58" fill="none" xmlns="http://www.w3.org/2000/svg">
    <path d="M46 56C48.2919 53.3859 51.2088 51.0376 52.8889 48.0811C53.3287 47.3071 50.7551 45.0308 49.8889 45.0015C49.1285 44.9758 44.8644 45.2788 47.1667 45.5392C51.6165 46.0426 57.9615 45.7799 62 47.2012" stroke="black" stroke-width="3" stroke-linecap="round"/>
    <path d="M13.8554 2.3281C10.5086 2.3281 7.44727 1.03277 4.8116 3.58962C2.93923 5.40599 2.57423 5.28053 2.27153 8.23431C2.06831 10.2173 1.71614 11.2817 2.41109 13.2804C3.21086 15.5805 7.88265 18.8425 10.115 18.8425C12.3063 18.8425 14.0135 16.697 15.8651 15.7461M21.8943 2.84417C21.8943 6.41251 21.2306 10.2044 20.4986 13.6818C19.5421 18.2259 25.4748 16.6881 28.4259 17.2943M34.9575 3.36025C34.4911 8.15048 29.2445 13.991 31.9429 19.0146C32.6328 20.299 37.1839 20.9548 38.3628 20.1614C41.564 18.0071 42.9627 14.4326 43.8896 10.8147C44.4953 8.45038 45.2916 6.60915 46.011 4.3924M45.5085 21.4229C45.7643 20.372 46.3849 19.623 46.5692 18.2978C46.9087 15.8568 47.5946 13.1305 48.4114 10.8147C49.4413 7.89508 50.1711 6.22625 53.4078 6.74342C55.0006 6.99791 63.6757 7.56127 61.1118 11.0727C59.5105 13.2658 57.588 11.2413 55.5571 11.7322C52.5556 12.4576 59.9543 14.2991 60.9722 15.3447C63.6369 18.0818 56.3807 22.3288 55.3059 22.9711C52.7558 24.4951 50.1734 27.1807 46.9879 26.5263C45.9575 26.3147 39.6189 23.8599 40.4842 22.9711M68.6203 22.9711C68.6203 18.4876 68.3536 14.2422 67.3922 9.86854C67.111 8.58972 66.4169 6.4567 68.1458 6.4567C72.1948 6.4567 76.1563 6.16184 80.2321 6.57138C84.8555 7.03596 79.1152 6.62232 77.6641 6.4567M70.1276 14.7139C70.5328 14.7139 74.2256 15.8953 75.6544 16.2622M67.6155 22.9711C70.3557 24.097 75.4489 24.3698 78.334 23.9746C79.2105 23.8546 80.5638 22.5731 81.1811 21.939M26.4161 39.4856C26.4161 35.1918 24.0062 30.1681 24.9368 25.8669C25.449 23.4993 32.0199 29.7399 32.4453 30.9417C33.2166 33.1203 32.3475 34.0942 31.3288 35.873C30.8223 36.7575 26.4881 40.0755 26.4161 40.0017M40.4842 38.9695C39.3057 39.104 38.5504 39.6145 37.2463 39.4569C35.2617 39.2171 33.9526 35.8258 33.9526 34.0668C33.9526 30.4291 36.1032 27.1761 39.7585 26.1823C42.7127 25.379 46.2239 29.6728 45.983 32.5185C45.9055 33.4339 44.7812 36.6193 44.0012 37.0199C42.9421 37.5638 40.9801 36.9186 40.4842 37.9373M12.8505 56C13.6 53.9792 13.9015 52.3406 13.8553 50.2085C13.8119 48.1991 12.4529 45.8964 12.8784 43.9296C13.3527 41.7372 21.2271 42.9889 22.3967 43.0981M13.8554 50.3232C16.0659 50.2037 18.133 49.8071 20.387 49.8071M29.9332 42.582C26.3251 46.506 23.8107 52.0008 29.4307 54.5665C31.6801 55.5933 38.9713 54.4648 39.9818 52.1294C40.8814 50.0502 40.4964 47.7178 41.4891 45.6785" stroke="black" stroke-width="3" stroke-linecap="round"/>
</svg>